# xmcd
# Track frame offsets:
# 150
# 13110
# 24962
# 36988
# 46282
# 58358
# 70904
# 81457
# 94507
# 106039
# 114893
# 129168
# 138590
# 152008
#
# Disc length: 2204 seconds
# Revision: 0
# Processed by: cddbd v1.4PL0 Copyright (c) Steve Scherf et al.
# Submitted via: VisiTrax 2.9.5.180 - For more info visit www.synapsa.com
#
DISCID=b1089a0e
DTITLE=Johnny Paycheck - When the grass grows over me
DYEAR=1999
DGENRE=
TTITLE0=When the grass grows over me
TTITLE1=Something about I love
TTITLE2=White lightning
TTITLE3=This too will pass
TTITLE4=Song and dance man
TTITLE5=Heavens almost as big as Texas
TTITLE6=Walk through this world with me
TTITLE7=Take me
TTITLE8=Take this job and shove it
TTITLE9=The Johnson's on Turkey Ridge
TTITLE10=Someone to give my love to
TTITLE11=The race is on
TTITLE12=Things have gone to pieces
TTITLE13=She's mine
EXTD=
EXTT0=
EXTT1=
EXTT2=
EXTT3=
EXTT4=
EXTT5=
EXTT6=
EXTT7=
EXTT8=
EXTT9=
EXTT10=
EXTT11=
EXTT12=
EXTT13=
PLAYORDER=
